<svg width="24" height="384" viewBox="0 0 24 384" fill="none" xmlns="http://www.w3.org/2000/svg"><rect x="2.75" y="3.75" width="7.5" height="7.5" rx="1.25" stroke="#333" stroke-width="1.5"/><rect x="13.75" y="12.75" width="7.5" height="7.5" rx="1.25" stroke="#333" stroke-width="1.5"/><rect x="13.75" y="3.75" width="7.5" height="5.5" rx="1.25" stroke="#333" stroke-width="1.5"/><rect x="2.75" y="14.75" width="7.5" height="5.5" rx="1.25" stroke="#333" stroke-width="1.5"/><path d="M6.75 40.5c0 1.2426-1.00736 2.25-2.25 2.25s-2.25-1.0074-2.25-2.25 1.00736-2.25 2.25-2.25 2.25 1.0074 2.25 2.25ZM11.75 31.5c0 1.2426-1.0074 2.25-2.25 2.25-1.24264 0-2.25-1.0074-2.25-2.25s1.00736-2.25 2.25-2.25c1.2426 0 2.25 1.0074 2.25 2.25Z" stroke="#333" stroke-width="1.5"/><path d="m5.5 38.5 3-5M15.5 38.5l5.5-9M13.5 38.5l-3-5" stroke="#333" stroke-width="1.5" stroke-linecap="round"/><path d="M16.75 40.5c0 1.2426-1.0074 2.25-2.25 2.25s-2.25-1.0074-2.25-2.25 1.0074-2.25 2.25-2.25 2.25 1.0074 2.25 2.25Z" stroke="#333" stroke-width="1.5"/><path d="m18 30.5 2.9889-.9963c.0058-.0019.012.0018.013.0078L21.5 32.5M17 53.25c1.5188 0 2.75 1.2312 2.75 2.75v6c0 1.5188-1.2312 2.75-2.75 2.75H7c-1.51878 0-2.75-1.2312-2.75-2.75v-6c0-1.5188 1.23122-2.75 2.75-2.75h10Z" stroke="#333" stroke-width="1.5" stroke-linecap="round"/><path d="M9.86603 67.5c-.3849.6667-1.34715.6667-1.73205 0l-1.73205-3h5.19617l-1.73207 3ZM21.5 52.75c0-.4142.3358-.75.75-.75s.75.3358.75.75V57c0 .5523-.4477 1-1 1h-.5v-5.25ZM2.5 52.75c0-.4142-.33579-.75-.75-.75s-.75.3358-.75.75V57c0 .5523.44772 1 1 1h.5v-5.25Z" fill="#333"/><rect x="7" y="56" width="3" height="3" rx="1.5" fill="#333"/><rect x="14" y="56" width="3" height="3" rx="1.5" fill="#333"/><path d="M10 60c0 .2626.0517.5227.1522.7654.1006.2426.2479.4631.4336.6488.1857.1857.4062.333.6488.4336.2427.1005.5028.1522.7654.1522.2626 0 .5227-.0517.7654-.1522.2426-.1006.4631-.2479.6488-.4336.1857-.1857.333-.4062.4336-.6488.1005-.2427.1522-.5028.1522-.7654h-4Z" fill="#333"/><path d="M14.1934 73.2539c.193.0183.3749.1024.5146.2393l4.7871 4.6914c.1631.1598.2549.379.2549.6074V92c0 .9665-.7835 1.75-1.75 1.75H6c-.9665 0-1.75-.7835-1.75-1.75V75.0273c0-.9642.77994-1.7467 1.74414-1.75l8.11626-.0273.083.0039Z" stroke="#333" stroke-width="1.5"/><path d="M14 74v3c0 1.1046.8954 2 2 2h3" stroke="#333" stroke-width="1.5" stroke-linecap="round"/><path d="M11.2559 80.8916c.3372-.6243 1.2987-.5797 1.5468.1338l.6739 1.9404 2.0556.042c.8054.0167 1.1379 1.0405.4961 1.5274l-1.6377 1.2412.5948 1.9668c.2333.7713-.6374 1.4046-1.2989.9443L12 87.5127l-1.6865 1.1748c-.66153.4603-1.53222-.173-1.29885-.9443l.59375-1.9668-1.63672-1.2412c-.64176-.4869-.30929-1.5107.49609-1.5274l2.05473-.042.6748-1.9404.0586-.1338Z" stroke="#333" stroke-width="1.5"/><path d="m17.97 102.721-.525.535.525-.535Zm-4.7869-4.6923-.5249.5356.5249-.5356Zm-.0703-.0286.0025.75-.0025-.75Zm-8.11615.0272-.00251-.75.00251.75ZM12 117.75c.4142 0 .75-.336.75-.75s-.3358-.75-.75-.75v1.5Zm6-14.958h-.75.75Zm-.03-.071.525-.536-4.7869-4.6919-.525.5356-.5249.5356 4.7868 4.6917.525-.535Zm-4.8572-4.7209-.0025-.75-8.11616.0272.00251.75.00251.75 8.11614-.0272-.0025-.75ZM4 99.0273h-.75V116h1.5V99.0273H4ZM5 117v.75h7v-1.5H5v.75Zm13-8h.75v-6.208h-1.5V109H18ZM4.99665 98.0273l-.00251-.75c-.9642.0032-1.74414.7858-1.74414 1.75h1.5c0-.1377.11142-.2495.24916-.25l-.00251-.75Zm8.18645.0014.525-.5356c-.1596-.1564-.3743-.2437-.5978-.243l.0025.75.0025.75c-.1709.0006-.3351-.0661-.4571-.1858l.5249-.5356Zm4.7869 4.6923-.525.535c-.1247-.122-.195-.289-.195-.464h1.5c0-.228-.0919-.447-.255-.607l-.525.536ZM4 116h-.75c0 .966.7835 1.75 1.75 1.75v-1.5c-.13807 0-.25-.112-.25-.25H4Z" fill="#333"/><path d="M13 98v3c0 1.105.8954 2 2 2h3M7 110h7M7 104h3M7 107h7" stroke="#333" stroke-width="1.5" stroke-linecap="round"/><path d="M23.1085 117.491c.3939.667-.0855 1.509-.8598 1.509h-9.4974c-.7743 0-1.2537-.842-.8598-1.509l4.7476-8.034c.387-.655 1.3348-.655 1.7218 0l4.7476 8.034Z" stroke="#333" stroke-width="1.5"/><path d="M17.5 112v3m0 1.95v.1" stroke="#333" stroke-width="1.5" stroke-linecap="round"/><g clip-path="url(#clip0_695_6812)" stroke="#333" stroke-width="1.5"><path d="M12 122.251c.1185 0 .219.027.2969.061l.0703.034.5703.296c.3508.175.8563.417 1.498.7.6924.304 2.048.668 3.3125.968 1.2405.294 2.3132.509 2.3936.525.0156.003.0778.015.1514.047.0846.036.2071.107.3076.242.0969.13.1281.259.1396.33.0104.064.0098.116.0098.123v5.652c0 4.119-1.8659 6.767-3.8848 8.366-1.0006.792-2.0342 1.326-2.8916 1.662-.8297.325-1.5669.493-1.9736.493-.2423 0-.5499-.065-.8584-.154-.3274-.095-.7174-.235-1.14453-.424-.85386-.378-1.88159-.958-2.875-1.779-1.9954-1.65-3.87207-4.29-3.87207-8.164v-5.68c.00048-.014.00183-.039.00586-.07.00775-.061.03212-.194.12695-.332.10132-.147.23053-.224.31836-.262.07414-.033.13693-.046.14942-.049l.79003-.171c.44895-.099 1.04635-.234 1.67969-.387 1.29581-.312 2.6479-.674 3.24414-.936 1.28315-.565 2.02135-.97 2.06835-.996l.0703-.034c.0779-.034.1784-.061.2969-.061Z"/><path d="M9.5 129v6M8.5 135h2M8.5 129h2M13.5 129v6M12.5 135h2M12.5 129H15c.8284 0 1.5.672 1.5 1.5s-.6716 1.5-1.5 1.5h-1" stroke-linecap="round"/></g><path d="m11 157 5 3M11 151v6M11.5 146.25c5.6609 0 10.25 4.589 10.25 10.25s-4.5891 10.25-10.25 10.25c-5.66092 0-10.25-4.589-10.25-10.25s4.58908-10.25 10.25-10.25Z" stroke="#333" stroke-width="1.5" stroke-linecap="round"/><path d="M6 176v1c0 .552.44772 1 1 1h2c.55228 0 1-.448 1-1v-1c0-.552-.44772-1-1-1H7c-.55228 0-1 .448-1 1ZM9 170v2c0 .552.44772 1 1 1h2c.5523 0 1-.448 1-1v-2c0-.552-.4477-1-1-1h-2c-.55228 0-1 .448-1 1ZM15 173v2c0 .552.4477 1 1 1h2c.5523 0 1-.448 1-1v-2c0-.552-.4477-1-1-1h-2c-.5523 0-1 .448-1 1Z" fill="#333"/><path d="M19.9902 177.25c.4196 0 .7597.34.7598.76v.986c0 .151-.0451.298-.1279.422l-.0948.115-6.7773 6.778v3.672c0 .565-.5944.933-1.0996.681l-1.9805-.99c-.2574-.129-.4198-.392-.4199-.68v-2.683l-6.77734-6.778c-.14247-.142-.2226-.335-.22266-.537v-.986c.00013-.42.34024-.76.75977-.76H19.9902Z" stroke="#333" stroke-width="1.5"/><g clip-path="url(#clip1_695_6812)"><circle cx="12" cy="204" r="1.5" fill="#333"/><path d="m7.02021 200.466-.61713 1.049c-.23598.401-.16403.912.17356 1.232l.50582.48c.19886.189.31152.451.31164.725l.00004.096c.00012.275-.11256.537-.31164.726l-.50544.48c-.33759.32-.40954.831-.17357 1.232l.61714 1.049c.2302.391.69512.579 1.13222.456l.73121-.205c.25092-.071.51942-.041.74834.084l.13582.074c.24578.134.42428.364.49208.636l.1657.663c.1113.445.5113.757.9702.757h1.2076c.4589 0 .8589-.312.9702-.757l.1656-.663c.0679-.272.2466-.502.4926-.636l.1356-.074c.2288-.124.4971-.154.7478-.084l.7315.206c.4372.122.9021-.065 1.1323-.456l.6171-1.049c.236-.401.164-.912-.1736-1.233l-.5054-.479c-.1991-.189-.3118-.452-.3116-.726v-.098c.0001-.274.1128-.536.3116-.725l.5059-.48c.3375-.32.4095-.831.1735-1.232l-.6171-1.049c-.2302-.391-.6951-.579-1.1322-.456l-.7313.205c-.2509.071-.5193.041-.7482-.084l-.1291-.07c-.25-.136-.4302-.372-.4954-.649l-.151-.64c-.1064-.452-.5094-.771-.9733-.771h-1.2231c-.4589 0-.8589.312-.9702.757l-.1657.663c-.0679.272-.2462.502-.49176.636l-.13642.074c-.22899.125-.49766.156-.74872.085l-.73096-.205c-.4371-.123-.90203.064-1.13223.456ZM3.80855 198.248c-3.238377 4.686-1.95213 10.748 2.45678 13.943m5.34297 1.803c5.6903.192 10.0901-4.169 10.3916-9.608m-1.0148-4.929c-2.6066-5.066-8.5562-6.784-13.44881-4.396" stroke="#333" stroke-width="1.5" stroke-linecap="round"/><path d="M6.5 194c.82843 0 1.5.672 1.5 1.5s-.67157 1.5-1.5 1.5-1.5-.672-1.5-1.5.67157-1.5 1.5-1.5ZM7.5 211.5c.82843 0 1.5.672 1.5 1.5s-.67157 1.5-1.5 1.5S6 213.828 6 213s.67157-1.5 1.5-1.5ZM22 202c.8284 0 1.5.672 1.5 1.5s-.6716 1.5-1.5 1.5-1.5-.672-1.5-1.5.6716-1.5 1.5-1.5Z" fill="#333"/></g><path d="M9 235h6v1c0 1.657-1.3431 3-3 3s-3-1.343-3-3v-1ZM5.25719 223.049c.80015-5.5 6.71531-7.087 10.46871-4.762-.4954.233-.9176.595-1.2197 1.047-2.9298-1.471-7.16926-.161-7.76463 3.931-.61406 4.223-1.60743 6.673-2.33008 7.985H19.5873c-.6811-1.236-1.6029-3.484-2.2207-7.274.5329-.065 1.0207-.271 1.4297-.578.7199 4.669 1.8949 6.873 2.4394 7.684l.1953.269c.2334.296.2155.654.1006.901-.054.115-.1433.229-.2607.32-.3346-.637-1.0014-1.071-1.7705-1.071H4.50036c-.77013 0-1.43827.435-1.77246 1.073-.11806-.091-.20659-.207-.26074-.322-.11502-.247-.13183-.605.10156-.901.39397-.5 1.87291-2.693 2.68847-8.302Z" fill="#333"/><path d="M2.5 233.3c0-.994.80589-1.8 1.8-1.8h15.4c.9941 0 1.8.806 1.8 1.8v.4c0 .994-.8059 1.8-1.8 1.8H4.3c-.99411 0-1.8-.806-1.8-1.8v-.4Z" stroke="#333" stroke-width="1.5"/><circle cx="17" cy="221" r="2.25" stroke="#333" stroke-width="1.5"/><g clip-path="url(#clip2_695_6812)"><circle cx="12" cy="252" r="3.25" stroke="#333" stroke-width="1.5"/><path d="M13.3594 240.504c.9988.001 1.8938.596 2.2881 1.5l.0722.184.5537 1.605c.0401.116.1214.213.2286.273l.3115.174c.1033.058.2237.077.3398.054l1.7949-.355.1944-.03c.9065-.106 1.8009.291 2.3291 1.035l.1074.165 1.3262 2.219c.5671.949.443 2.158-.3047 2.973l-1.1416 1.244c-.0844.092-.1316.212-.1319.337v.239c0 .125.0471.247.1319.339l1.1387 1.24c.7479.815.872 2.025.3046 2.974l-.332.555c-.1855-.143-.4176-.229-.6699-.229h-.9414l.6553-1.096c.1986-.332.1863-.744-.0205-1.06l-.1006-.129-1.1397-1.241c-.2969-.324-.4784-.735-.5185-1.168l-.0079-.188v-.238c.0007-.437.1449-.861.4073-1.206l.1191-.144 1.1426-1.243c.2618-.285.3318-.691.1934-1.043l-.0723-.146-1.3262-2.219c-.2167-.363-.6374-.55-1.0517-.468l-1.795.355-.1748.026c-.3514.038-.7066-.019-1.0293-.163l-.1591-.079-.3106-.174c-.429-.24-.7547-.629-.915-1.094l-.5537-1.604c-.1217-.353-.4272-.604-.7872-.661l-.1572-.013-2.7138-.003c-.4272-.001-.80814.27-.94731.674l-.55176 1.603-.06836.172c-.17645.391-.47477.716-.85254.926l-.30664.17-.1582.079c-.3753.167-.7945.214-1.2002.134l-1.79785-.355c-.41432-.082-.83506.106-1.05176.468l-1.32617 2.219c-.22672.379-.17766.862.1211 1.188l1.14257 1.244c.33788.369.52561.85.52637 1.35v.252c.00076.502-.18689.987-.52637 1.356l-1.13964 1.241c-.2992.326-.34808.809-.1211 1.189l1.32617 2.219c.21677.362.63749.55 1.05176.468l1.79883-.356c.46304-.091.94354-.016 1.35645.213l.30371.168c.32819.182.59655.451.77734.774v2.503c.00021.608.49242 1.1 1.0996 1.1h4.7529c-.4236.316-.9456.5-1.5.499l-2.7138-.004c-1.06499-.001-2.01196-.678-2.3594-1.684l-.55274-1.601c-.04029-.117-.12242-.215-.23047-.274l-.30371-.169c-.10311-.057-.22322-.076-.33886-.053l-1.79883.355c-1.03593.205-2.08906-.263-2.63086-1.17l-1.32617-2.218c-.567269-.95-.443228-2.159.30468-2.974l1.13868-1.24c.0848-.093.13195-.214.13183-.339v-.253c-.00022-.125-.04745-.245-.13183-.337l-1.14161-1.244c-.747886-.815-.872126-2.024-.30468-2.974l1.32617-2.217.10742-.165c.52815-.745 1.42256-1.142 2.3291-1.036l.19434.031 1.79785.355c.11585.023.23658.004.33984-.054l.30664-.17c.10783-.059.18925-.157.2295-.274l.55273-1.603.07227-.186c.39494-.906 1.29303-1.501 2.29391-1.5l2.7149.003Z" fill="#333"/><path d="M21.9004 262.75c.4691 0 .8494-.38.8496-.85v-3.8c-.0002-.47-.3805-.85-.8496-.85H10.0996c-.46912 0-.84939.38-.8496.85v3.8c.00021.47.38048.85.8496.85h11.8008Z" stroke="#333" stroke-width="1.5"/><path d="M13 259.5c.2761 0 .5.224.5.5s-.2239.5-.5.5-.5-.224-.5-.5.2239-.5.5-.5ZM19 259.5c.2761 0 .5.224.5.5s-.2239.5-.5.5-.5-.224-.5-.5.2239-.5.5-.5ZM16 259.5c.2761 0 .5.224.5.5s-.2239.5-.5.5-.5-.224-.5-.5.2239-.5.5-.5Z" stroke="#333" stroke-linecap="round"/></g><g clip-path="url(#clip3_695_6812)" stroke="#333" stroke-width="1.5"><circle cx="12" cy="276" r="3.25"/><path d="M13.3583 265.254c.7457.001 1.409.474 1.6524 1.179l.5537 1.605c.1002.29.3042.533.5723.683l.3105.174c.2589.144.5606.192.8516.134l1.7949-.354c.725-.143 1.4616.185 1.8408.819l1.3262 2.219c.3971.664.3107 1.511-.2129 2.081l-1.1416 1.243c-.2113.23-.3286.531-.3291.844v.238c-.0005.314.1169.617.3291.848l1.1396 1.241c.5233.57.6099 1.417.2129 2.081l-1.3261 2.219c-.3793.634-1.1167.961-1.8418.818l-1.795-.354c-.2907-.058-.5927-.01-.8515.134l-.3067.171c-.2687.15-.473.394-.5732.685l-.5537 1.606c-.2435.707-.9094 1.182-1.6572 1.181l-2.7139-.004c-.74543-.001-1.40819-.475-1.65138-1.18l-.55273-1.6c-.10074-.292-.30608-.536-.57618-.686l-.30371-.169c-.25801-.142-.55832-.189-.84765-.131l-1.79883.355c-.72514.143-1.46254-.185-1.8418-.819l-1.32617-2.219c-.39692-.664-.31037-1.511.21289-2.081l1.13965-1.241c.21207-.231.32946-.533.3291-.847v-.253c-.00047-.312-.11781-.614-.3291-.844l-1.1416-1.243c-.52359-.57-.61012-1.417-.21289-2.082l1.32617-2.218c.37924-.634 1.11574-.962 1.84082-.819l1.79785.355c.28969.058.59039.011.84863-.132l.30664-.171c.26991-.15.47562-.394.57618-.686l.55175-1.603c.24352-.707.90974-1.181 1.65726-1.18l2.7138.003Z" stroke-linecap="round"/></g><path d="M12 290.25c-4.28021 0-7.75 3.47-7.75 7.75v9.308c.00007.393.13566.828.47754 1.154.3916.373 1.21359 1.034 2.34082 1.231 1.18287.207 2.56098-.12 3.95604-1.483.8362-.817 1.9023-1.114 3.0254-1.116 1.1322-.003 2.27.295 3.1484.611 1.1361.408 2.5518-.373 2.5518-1.724V298c0-4.28-3.4698-7.75-7.75-7.75Z" stroke="#333" stroke-width="1.5"/><path d="M10 301c0 .263.0517.523.1522.765.1006.243.2479.463.4336.649.1857.186.4062.333.6488.434.2427.1.5028.152.7654.152.2626 0 .5227-.052.7654-.152.2426-.101.4631-.248.6488-.434.1857-.186.333-.406.4336-.649.1005-.242.1522-.502.1522-.765h-4Z" fill="#333"/><path d="M9.5 297.5v1M14.5 297.5v1" stroke="#333" stroke-width="1.5" stroke-linecap="round"/><path d="M12 333c-.2416 0-.4768-.045-.7055-.136-.2288-.091-.4302-.227-.6042-.408L3.84 325.558c-.61404-.615-1.07421-1.314-1.38053-2.096C2.15316 322.68 2 321.872 2 321.037c0-1.664.53035-3.086 1.59105-4.266C4.65175 315.59 5.96482 315 7.53026 315c.78141 0 1.52465.159 2.22974.476.7053.318 1.3339.762 1.8858 1.333l.3542.376.3339-.355c.5479-.585 1.1762-1.036 1.8848-1.354.7084-.317 1.45-.476 2.2247-.476 1.5655 0 2.8829.59 3.9524 1.771C21.4653 317.951 22 319.364 22 321.01c0 .842-.1559 1.654-.4676 2.436-.3118.782-.7692 1.48-1.3724 2.096l-6.8766 6.914c-.1809.181-.3796.317-.5963.408-.2165.091-.4455.136-.6871.136Zm1.0526-12.944c.1349 0 .2611.032.3785.096.1175.065.21.15.2773.257l1.8603 2.814h4.3281c.1836-.353.3212-.716.4129-1.088.0918-.372.1343-.747.1277-1.125-.0285-1.214-.4219-2.25-1.1803-3.107-.7584-.858-1.6963-1.287-2.8137-1.287-.5573 0-1.0962.111-1.6166.332-.5201.222-.9712.545-1.3531.97l-.8321.897c-.0809.099-.178.173-.2913.221-.1134.048-.2301.072-.3503.072s-.2386-.026-.3553-.078c-.1166-.051-.2208-.123-.3126-.215l-.8321-.897c-.3819-.425-.83035-.754-1.34526-.986-.51474-.232-1.05623-.348-1.62448-.348-1.11737 0-2.05526.434-2.81368 1.302-.75842.869-1.13763 1.91-1.13763 3.124 0 .385.04316.761.12947 1.13.08649.369.21807.73.39474 1.083h4.73895c.13491 0 .25938.033.37342.097.11403.064.20482.15.27237.257l1.2247 1.829 1.5932-4.794c.0567-.164.1517-.297.2853-.401.1336-.103.2875-.155.4615-.155Zm.2348 2.569-1.5932 4.793c-.0567.164-.1561.298-.2984.401-.1425.104-.3007.156-.4747.156-.135 0-.2594-.032-.3735-.097-.114-.064-.2048-.15-.2723-.257l-1.8703-2.814H5.32579l6.49001 6.52c.0351.035.0658.057.0921.066.0263.009.057.013.0921.013s.0658-.004.0921-.013c.0263-.009.057-.031.0921-.066l6.4737-6.52h-3.5c-.1349 0-.2611-.034-.3784-.101-.1176-.068-.2155-.155-.2937-.262l-1.1984-1.819Z" fill="#333"/><path d="M11.5 341.75c.4142 0 .75.336.75.75s-.3358.75-.75.75-.75-.336-.75-.75.3358-.75.75-.75Z" fill="#333" stroke="#333" stroke-width="1.5" stroke-linecap="round"/><path d="M9.5 347.5v8.464c0 .023.0082.046.02318.064l2.40672 2.888c.0376.045.106.048.1475.007l2.8519-2.852c.0391-.039.0391-.103 0-.142l-1.8586-1.858c-.039-.039-.039-.103 0-.142l1.8586-1.858c.0391-.039.0391-.103 0-.142l-1.9-1.9c-.0187-.018-.0293-.044-.0293-.07V347.5M13.2329 347.456c1.1571-.405 2.1362-1.202 2.7675-2.252.6312-1.051.8749-2.29.6887-3.501-.1862-1.212-.7905-2.32-1.7081-3.133-.9177-.813-2.0908-1.279-3.316-1.317-1.2252-.039-2.42533.353-3.39221 1.106-.96689.754-1.63961 1.822-1.90154 3.019-.26193 1.198-.09656 2.449.46745 3.538.56401 1.088 1.49109 1.945 2.62052 2.421" stroke="#333" stroke-width="1.5" stroke-linecap="round"/><path d="M16.7732 375.727c-.2976.297-.7819.292-1.073-.012-.2823-.295-.2772-.761.0115-1.05l1.9153-1.915H9.84625c-.41421 0-.75-.336-.75-.75s.33579-.75.75-.75H17.627l-1.9153-1.915c-.2887-.289-.2938-.755-.0115-1.05.2911-.304.7754-.309 1.073-.012L20.5 372l-3.7268 3.727Z" fill="#333"/><path d="M12 364H5c-.55228 0-1 .448-1 1v14c0 .552.44772 1 1 1h7" stroke="#333" stroke-width="1.5" stroke-linecap="round"/><defs><clipPath id="clip0_695_6812"><path fill="#fff" d="M0 120h24v24H0z"/></clipPath><clipPath id="clip1_695_6812"><path fill="#fff" d="M0 192h24v24H0z"/></clipPath><clipPath id="clip2_695_6812"><path fill="#fff" d="M0 240h24v24H0z"/></clipPath><clipPath id="clip3_695_6812"><path fill="#fff" d="M0 264h24v24H0z"/></clipPath></defs></svg>