<?xml version="1.0" encoding="UTF-8" standalone="no"?>
<svg
   width="1920"
   height="1080"
   viewBox="0 0 1920 1080"
   version="1.1"
   id="svg204"
   xmlns="http://www.w3.org/2000/svg"
   xmlns:svg="http://www.w3.org/2000/svg">
  <!-- ============================================================
       TEASER: "Prism in the Void"
       A wider composition extending the Deconstructivist Prism logo
       into an atmospheric architectural scene.
       
       Inspired by: Zaha Hadid, Daniel Libeskind, Tadao Ando
       Concept: An abstract crystalline structure floating in a 
       minimalist void, with architectural grid lines suggesting
       an urban landscape receding into darkness.
       ============================================================ -->
  <defs
     id="defs48">
    <!-- Background gradient: dark void with subtle blue shift -->
    <linearGradient
       id="bgGrad"
       x1="0%"
       y1="100%"
       x2="30%"
       y2="0%">
      <stop
         offset="0%"
         stop-color="#060610"
         id="stop2" />
      <stop
         offset="40%"
         stop-color="#0a0a1e"
         id="stop4" />
      <stop
         offset="100%"
         stop-color="#0e1030"
         id="stop6" />
    </linearGradient>
    <!-- Atmospheric glow behind main structure -->
    <radialGradient
       id="atmosGlow"
       cx="55%"
       cy="48%"
       r="30%">
      <stop
         offset="0%"
         stop-color="#0d1a3a"
         stop-opacity="0.8"
         id="stop9" />
      <stop
         offset="60%"
         stop-color="#0a0e22"
         stop-opacity="0.3"
         id="stop11" />
      <stop
         offset="100%"
         stop-color="#0a0a1e"
         stop-opacity="0"
         id="stop13" />
    </radialGradient>
    <!-- Floor reflection gradient -->
    <linearGradient
       id="floorGrad"
       x1="0%"
       y1="0%"
       x2="0%"
       y2="100%">
      <stop
         offset="0%"
         stop-color="#0a0a1e"
         id="stop16" />
      <stop
         offset="100%"
         stop-color="#040408"
         id="stop18" />
    </linearGradient>
    <!-- Cyan gradient for main facet -->
    <linearGradient
       id="cyanGrad"
       x1="0%"
       y1="0%"
       x2="100%"
       y2="100%">
      <stop
         offset="0%"
         stop-color="#00d4ff"
         id="stop21" />
      <stop
         offset="100%"
         stop-color="#007799"
         id="stop23" />
    </linearGradient>
    <!-- Gold gradient -->
    <linearGradient
       id="goldGrad"
       x1="0%"
       y1="0%"
       x2="100%"
       y2="100%">
      <stop
         offset="0%"
         stop-color="#e8b931"
         id="stop26" />
      <stop
         offset="100%"
         stop-color="#c49520"
         id="stop28" />
    </linearGradient>
    <!-- Indigo gradient for main volume -->
    <linearGradient
       id="indigoGrad"
       x1="0%"
       y1="0%"
       x2="80%"
       y2="100%">
      <stop
         offset="0%"
         stop-color="#252550"
         id="stop31" />
      <stop
         offset="100%"
         stop-color="#12122a"
         id="stop33" />
    </linearGradient>
    <!-- Perspective grid fade -->
    <linearGradient
       id="gridFade"
       x1="50%"
       y1="0%"
       x2="50%"
       y2="100%">
      <stop
         offset="0%"
         stop-color="#ffffff"
         stop-opacity="0.08"
         id="stop36" />
      <stop
         offset="70%"
         stop-color="#ffffff"
         stop-opacity="0.02"
         id="stop38" />
      <stop
         offset="100%"
         stop-color="#ffffff"
         stop-opacity="0"
         id="stop40" />
    </linearGradient>
    <!-- Horizon glow -->
    <radialGradient
       id="horizonGlow"
       cx="50%"
       cy="75%"
       r="50%">
      <stop
         offset="0%"
         stop-color="#00d4ff"
         stop-opacity="0.04"
         id="stop43" />
      <stop
         offset="100%"
         stop-color="#00d4ff"
         stop-opacity="0"
         id="stop45" />
    </radialGradient>
  </defs>
  <!-- === BACKGROUND === -->
  <path
     id="rect50"
     style="fill:url(#bgGrad)"
     d="M 0,0 H 1920 V 1080 H 0 Z" />
  <path
     id="rect52"
     style="fill:url(#atmosGlow)"
     d="M 0,0 H 1920 V 1080 H 0 Z" />
  <path
     id="rect54"
     style="fill:url(#horizonGlow)"
     d="M 0,0 H 1920 V 1080 H 0 Z" />
  <!-- === PERSPECTIVE GRID (architectural floor) === -->
  <!-- Vanishing point at roughly (960, 300) -->
  <g
     opacity="0.06"
     stroke="#00d4ff"
     stroke-width="0.5"
     fill="none"
     id="g102">
    <!-- Horizontal perspective lines (converging to vanishing point) -->
    <path
       id="line56"
       d="M 0,1080 960,300" />
    <path
       id="line58"
       d="M 200,1080 960,300" />
    <path
       id="line60"
       d="M 400,1080 960,300" />
    <path
       id="line62"
       d="M 600,1080 960,300" />
    <path
       id="line64"
       d="M 800,1080 960,300" />
    <path
       id="line66"
       d="M 960,1080 V 300" />
    <path
       id="line68"
       d="M 1120,1080 960,300" />
    <path
       id="line70"
       d="M 1320,1080 960,300" />
    <path
       id="line72"
       d="M 1520,1080 960,300" />
    <path
       id="line74"
       d="M 1720,1080 960,300" />
    <path
       id="line76"
       d="M 1920,1080 960,300" />
    <!-- Cross lines (horizontal, getting closer together near horizon) -->
    <path
       id="line78"
       d="M 0,900 H 1920" />
    <path
       id="line80"
       d="M 0,780 H 1920" />
    <path
       id="line82"
       d="M 0,680 H 1920" />
    <path
       id="line84"
       d="M 0,600 H 1920" />
    <path
       id="line86"
       d="M 0,540 H 1920" />
    <path
       id="line88"
       d="M 0,495 H 1920" />
    <path
       id="line90"
       d="M 0,460 H 1920" />
    <path
       id="line92"
       d="M 0,433 H 1920" />
    <path
       id="line94"
       d="M 0,412 H 1920" />
    <path
       id="line96"
       d="M 0,395 H 1920" />
    <path
       id="line98"
       d="M 0,382 H 1920" />
    <path
       id="line100"
       d="M 0,371 H 1920" />
  </g>
  <!-- === DISTANT ARCHITECTURAL ELEMENTS (background, very subtle) === -->
  <!-- Tall tower silhouettes in the far distance -->
  <g
     opacity="0.12"
     id="g118">
    <!-- Far left tower cluster -->
    <path
       id="rect104"
       style="fill:#0d0d20"
       d="m 180,280 h 25 v 400 h -25 z" />
    <path
       id="rect106"
       style="fill:#0c0c1e"
       d="m 215,310 h 18 v 370 h -18 z" />
    <path
       id="rect108"
       style="fill:#0b0b1c"
       d="m 150,340 h 20 v 340 h -20 z" />
    <!-- Far right tower cluster -->
    <path
       id="rect110"
       style="fill:#0d0d20"
       d="m 1580,300 h 22 v 380 h -22 z" />
    <path
       id="rect112"
       style="fill:#0c0c1e"
       d="m 1610,260 h 30 v 420 h -30 z" />
    <path
       id="rect114"
       style="fill:#0b0b1c"
       d="m 1650,330 h 16 v 350 h -16 z" />
    <path
       id="rect116"
       style="fill:#0a0a1a"
       d="m 1540,350 h 15 v 330 h -15 z" />
  </g>
  <!-- === FLOATING GEOMETRIC SHARDS (midground atmosphere) === -->
  <!-- These create depth and architectural dynamism -->
  <!-- Large floating plane - left side, tilted -->
  <path
     id="polygon120"
     style="opacity:0.4;fill:#1a1a3e"
     d="m 120,420 160,-70 40,90 -160,70 z" />
  <!-- Medium shard - right side -->
  <path
     id="polygon122"
     style="opacity:0.25;fill:#004466"
     d="m 1500,380 120,-40 20,90 -120,40 z" />
  <!-- Small triangular accent - upper left -->
  <path
     id="polygon124"
     style="opacity:0.08;fill:#00d4ff"
     d="m 300,200 60,-30 -20,70 z" />
  <!-- Wireframe cube - left midground (just edges) -->
  <g
     opacity="0.06"
     stroke="#00d4ff"
     stroke-width="0.8"
     fill="none"
     id="g136">
    <path
       id="polygon126"
       d="m 80,480 60,-30 v 60 l -60,30 z" />
    <path
       id="polygon128"
       d="m 140,450 60,30 v 60 l -60,-30 z" />
    <path
       id="line130"
       d="m 80,480 60,30" />
    <path
       id="line132"
       d="m 140,450 60,30" />
    <path
       id="line134"
       style="opacity:0"
       d="m 80,540 60,30" />
  </g>
  <!-- === MAIN STRUCTURE: DECONSTRUCTIVIST PRISM (scaled up) === -->
  <!-- Centered at roughly (1050, 480) - slightly right of center for dynamic balance -->
  <!-- Layer 1 (deepest): Back-right face - deep indigo volume -->
  <path
     id="polygon138"
     style="fill:url(#indigoGrad)"
     d="M 1050,110 1300,350 1210,790 910,640 Z" />
  <!-- Layer 2: Left face - dark teal, creates corner depth -->
  <path
     id="polygon140"
     style="fill:#004466"
     d="M 730,310 1050,110 910,640 640,590 Z" />
  <!-- Layer 3: Top face - deep purple, closes the top volume -->
  <path
     id="polygon142"
     style="fill:#2d1b69"
     d="m 730,310 320,-200 250,240 -380,80 z" />
  <!-- Layer 4: Front-right facet - electric cyan, catches light -->
  <path
     id="polygon144"
     style="opacity:0.92;fill:url(#cyanGrad)"
     d="m 1300,350 100,180 -120,360 -70,-100 z" />
  <!-- Layer 5: Lower-left cantilever - warm gold accent -->
  <path
     id="polygon146"
     style="opacity:0.88;fill:url(#goldGrad)"
     d="M 640,590 910,640 810,830 530,795 Z" />
  <!-- Layer 6: Floating shard - upper right of main structure -->
  <path
     id="polygon148"
     style="opacity:0.2;fill:#00d4ff"
     d="m 1200,80 160,120 -60,150 -150,-90 z" />
  <!-- Layer 7: Small floating element near gold accent -->
  <path
     id="polygon150"
     style="opacity:0.15;fill:#e8b931"
     d="m 1350,200 80,70 -30,100 -70,-60 z" />
  <!-- === EDGE HIGHLIGHTS on main structure === -->
  <g
     stroke-linecap="round"
     id="g166">
    <path
       id="line152"
       style="opacity:0.2;stroke:#ffffff;stroke-width:1.8"
       d="m 1050,110 250,240" />
    <path
       id="line154"
       style="opacity:0.18;stroke:#ffffff;stroke-width:1.5"
       d="m 1300,350 100,180" />
    <path
       id="line156"
       style="opacity:0.12;stroke:#ffffff;stroke-width:1.2"
       d="M 1050,110 730,310" />
    <path
       id="line158"
       style="opacity:0.15;stroke:#00d4ff"
       d="M 1300,350 920,430" />
    <path
       id="line160"
       style="opacity:0.1;stroke:#ffffff;stroke-width:0.8"
       d="M 730,310 1050,110" />
    <!-- Gold edge highlight -->
    <path
       id="line162"
       style="opacity:0.15;stroke:#e8b931;stroke-width:1.2"
       d="m 640,590 270,50" />
    <path
       id="line164"
       style="opacity:0.12;stroke:#e8b931"
       d="M 910,640 810,830" />
  </g>
  <!-- === REFLECTION (below main structure, very subtle) === -->
  <g
     opacity="0.06"
     transform="translate(0,1080) scale(1,-1) translate(0,-1080)"
     id="g174">
    <path
       id="polygon168"
       style="fill:#2d1b69"
       d="m 730,310 320,-200 250,240 -380,80 z" />
    <path
       id="polygon170"
       style="fill:#00d4ff"
       d="m 1300,350 100,180 -120,360 -70,-100 z" />
    <path
       id="polygon172"
       style="fill:#e8b931"
       d="M 640,590 910,640 810,830 530,795 Z" />
  </g>
  <!-- === ADDITIONAL FLOATING ELEMENTS (foreground atmosphere) === -->
  <!-- These create a sense of architectural debris / deconstruction -->
  <!-- Small floating triangle - bottom right -->
  <path
     id="polygon176"
     style="opacity:0.1;fill:#00d4ff"
     d="m 1650,750 70,-40 -20,80 z" />
  <!-- Thin parallelogram - bottom left -->
  <path
     id="polygon178"
     style="opacity:0.15;fill:#2d1b69"
     d="m 100,850 100,-30 20,50 -100,30 z" />
  <!-- Dot cluster (suggests distant lights / city) -->
  <g
     fill="#00d4ff"
     opacity="0.06"
     id="g196">
    <path
       id="circle180"
       d="m 351.5,400 a 1.5,1.5 0 0 1 -1.5,1.5 1.5,1.5 0 0 1 -1.5,-1.5 1.5,1.5 0 0 1 1.5,-1.5 1.5,1.5 0 0 1 1.5,1.5 z" />
    <path
       id="circle182"
       d="m 371,390 a 1,1 0 0 1 -1,1 1,1 0 0 1 -1,-1 1,1 0 0 1 1,-1 1,1 0 0 1 1,1 z" />
    <path
       id="circle184"
       d="m 391.2,410 a 1.2,1.2 0 0 1 -1.2,1.2 1.2,1.2 0 0 1 -1.2,-1.2 1.2,1.2 0 0 1 1.2,-1.2 1.2,1.2 0 0 1 1.2,1.2 z" />
    <path
       id="circle186"
       d="m 420.8,395 a 0.80000001,0.80000001 0 0 1 -0.8,0.8 0.80000001,0.80000001 0 0 1 -0.8,-0.8 0.80000001,0.80000001 0 0 1 0.8,-0.8 0.80000001,0.80000001 0 0 1 0.8,0.8 z" />
    <path
       id="circle188"
       d="m 1551.5,450 a 1.5,1.5 0 0 1 -1.5,1.5 1.5,1.5 0 0 1 -1.5,-1.5 1.5,1.5 0 0 1 1.5,-1.5 1.5,1.5 0 0 1 1.5,1.5 z" />
    <path
       id="circle190"
       d="m 1571,440 a 1,1 0 0 1 -1,1 1,1 0 0 1 -1,-1 1,1 0 0 1 1,-1 1,1 0 0 1 1,1 z" />
    <path
       id="circle192"
       d="m 1591.2,460 a 1.2,1.2 0 0 1 -1.2,1.2 1.2,1.2 0 0 1 -1.2,-1.2 1.2,1.2 0 0 1 1.2,-1.2 1.2,1.2 0 0 1 1.2,1.2 z" />
    <path
       id="circle194"
       d="m 1610.8,445 a 0.80000001,0.80000001 0 0 1 -0.8,0.8 0.80000001,0.80000001 0 0 1 -0.8,-0.8 0.80000001,0.80000001 0 0 1 0.8,-0.8 0.80000001,0.80000001 0 0 1 0.8,0.8 z" />
  </g>
  <!-- === FLOOR PLANE (subtle ground plane) === -->
  <path
     id="rect198"
     style="opacity:0.5;fill:url(#floorGrad)"
     d="m 0,850 h 1920 v 230 H 0 Z" />
   <!-- === TITLE TEXT: World Office === -->
   <text
      x="960"
      y="993"
      id="text200"
      style="font-weight:300;font-size:28px;font-family:'Helvetica Neue', Helvetica, Arial, sans-serif;letter-spacing:24;text-anchor:middle;opacity:0.35;fill:#ffffff">World Office</text>
   <!-- Subtitle: INDEPENDENT DOCUMENT SUITE -->
   <text
      x="960"
      y="1035"
      id="text202"
      style="font-weight:300;font-size:11px;font-family:'Helvetica Neue', Helvetica, Arial, sans-serif;letter-spacing:8;text-anchor:middle;opacity:0.2;fill:#00d4ff">INDEPENDENT DOCUMENT SUITE</text>
</svg>
