<?xml version="1.0" encoding="UTF-8" standalone="no"?>
<!DOCTYPE svg PUBLIC "-//W3C//DTD SVG 1.1//EN" "http://www.w3.org/Graphics/SVG/1.1/DTD/svg11.dtd">
<svg width="100%" height="100%" viewBox="0 0 493 125" version="1.1" xmlns="http://www.w3.org/2000/svg" xmlns:xlink="http://www.w3.org/1999/xlink" xml:space="preserve" xmlns:serif="http://www.serif.com/" style="fill-rule:evenodd;clip-rule:evenodd;">
    <g transform="matrix(1,0,0,1,-730.913209,-1435.803646)">
        <g transform="matrix(1,0,0,1,911.774831,1498.303646)">
            <g transform="matrix(1,0,0,1,-50,-62.5)">
                <clipPath id="_clip1">
                    <rect x="0" y="0" width="100" height="125"/>
                </clipPath>
                <g clip-path="url(#_clip1)">
                    <g transform="matrix(4.166667,0,0,4.166667,0,0)">
                        <path d="M1.5,2.5C1.5,1.403 2.403,0.5 3.5,0.5L16.783,0.5C17.05,0.5 17.305,0.607 17.493,0.796L22.158,5.506C22.343,5.692 22.447,5.944 22.448,6.207L22.496,27.496C22.496,27.497 22.496,27.499 22.496,27.5C22.496,28.597 21.593,29.5 20.496,29.5C20.496,29.5 3.5,29.5 3.5,29.5C2.403,29.5 1.5,28.597 1.5,27.5L1.5,2.5Z" style="fill:white;fill-rule:nonzero;stroke:rgb(187,187,187);stroke-width:1px;"/>
                    </g>
                    <g transform="matrix(4.166667,0,0,4.166667,0,0)">
                        <path d="M16.5,0.5L16.5,5C16.5,5.823 17.177,6.5 18,6.5L22.5,6.5" style="fill:none;fill-rule:nonzero;stroke:rgb(187,187,187);stroke-width:1px;"/>
                    </g>
                    <g transform="matrix(4.166667,0,0,4.166667,0,0)">
                        <path d="M11,20C11,20.552 10.552,21 10,21L6,21C5.448,21 5,20.552 5,20C5,19.448 5.448,19 6,19L10,19C10.552,19 11,19.448 11,20Z" style="fill:rgb(176,217,173);"/>
                    </g>
                    <g transform="matrix(4.166667,0,0,4.166667,0,0)">
                        <path d="M11,16C11,16.552 10.552,17 10,17L6,17C5.448,17 5,16.552 5,16C5,15.448 5.448,15 6,15L10,15C10.552,15 11,15.448 11,16Z" style="fill:rgb(176,217,173);"/>
                    </g>
                    <g transform="matrix(4.166667,0,0,4.166667,0,0)">
                        <path d="M19,16C19,16.552 18.552,17 18,17L14,17C13.448,17 13,16.552 13,16C13,15.448 13.448,15 14,15L18,15C18.552,15 19,15.448 19,16Z" style="fill:rgb(176,217,173);"/>
                    </g>
                    <g transform="matrix(4.166667,0,0,4.166667,0,0)">
                        <path d="M19,20C19,20.552 18.552,21 18,21L14,21C13.448,21 13,20.552 13,20C13,19.448 13.448,19 14,19L18,19C18.552,19 19,19.448 19,20Z" style="fill:rgb(176,217,173);"/>
                    </g>
                    <g transform="matrix(4.166667,0,0,4.166667,0,0)">
                        <path d="M19,12C19,12.552 18.552,13 18,13L14,13C13.448,13 13,12.552 13,12C13,11.448 13.448,11 14,11L18,11C18.552,11 19,11.448 19,12Z" style="fill:rgb(58,161,51);"/>
                    </g>
                    <g transform="matrix(4.166667,0,0,4.166667,0,0)">
                        <path d="M11,12C11,12.552 10.552,13 10,13L6,13C5.448,13 5,12.552 5,12C5,11.448 5.448,11 6,11L10,11C10.552,11 11,11.448 11,12Z" style="fill:rgb(58,161,51);"/>
                    </g>
                </g>
            </g>
        </g>
        <g transform="matrix(1,0,0,1,1042.636453,1498.303646)">
            <g transform="matrix(1,0,0,1,-50,-62.5)">
                <clipPath id="_clip2">
                    <rect x="0" y="0" width="100" height="125"/>
                </clipPath>
                <g clip-path="url(#_clip2)">
                    <g transform="matrix(4.166667,0,0,4.166667,0,0)">
                        <path d="M1.5,2.5C1.5,1.403 2.403,0.5 3.5,0.5L16.783,0.5C17.05,0.5 17.305,0.607 17.493,0.796L22.158,5.506C22.343,5.692 22.447,5.944 22.448,6.207L22.496,27.496C22.496,27.497 22.496,27.499 22.496,27.5C22.496,28.597 21.593,29.5 20.496,29.5C20.496,29.5 3.5,29.5 3.5,29.5C2.403,29.5 1.5,28.597 1.5,27.5L1.5,2.5Z" style="fill:white;fill-rule:nonzero;stroke:rgb(187,187,187);stroke-width:1px;"/>
                    </g>
                    <g transform="matrix(4.166667,0,0,4.166667,0,0)">
                        <path d="M16.5,0.5L16.5,5C16.5,5.823 17.177,6.5 18,6.5L22.5,6.5" style="fill:none;fill-rule:nonzero;stroke:rgb(187,187,187);stroke-width:1px;"/>
                    </g>
                    <g transform="matrix(4.166667,0,0,4.166667,0,0)">
                        <path d="M6.5,15L11.5,15C11.774,15 12,14.774 12,14.5L12,9.5C12,9.496 12,9.493 12,9.489C12,9.231 12.212,9.019 12.47,9.019C12.48,9.019 12.49,9.019 12.5,9.02C15.592,9.279 17.999,11.896 17.999,14.999C17.999,18.291 15.291,20.999 11.999,20.999C8.896,20.999 6.279,18.592 6.02,15.5C6.019,15.49 6.019,15.48 6.019,15.47C6.019,15.212 6.231,15 6.489,15C6.493,15 6.496,15 6.5,15" style="fill:rgb(250,194,153);fill-rule:nonzero;"/>
                    </g>
                    <g transform="matrix(4.166667,0,0,4.166667,0,0)">
                        <path d="M5.5,13C5.224,13 4.997,12.775 5.025,12.5C5.262,10.143 7.144,8.261 9.501,8.025C9.776,7.997 10,8.224 10,8.5L10,12.5C10,12.774 9.774,13 9.5,13L5.5,13Z" style="fill:rgb(243,103,0);fill-rule:nonzero;"/>
                    </g>
                </g>
            </g>
        </g>
        <g transform="matrix(1,0,0,1,780.913209,1498.303646)">
            <g transform="matrix(1,0,0,1,-50,-62.5)">
                <clipPath id="_clip3">
                    <rect x="0" y="0" width="100" height="125"/>
                </clipPath>
                <g clip-path="url(#_clip3)">
                    <g transform="matrix(4.166667,0,0,4.166667,0,0)">
                        <path d="M1.5,2.5C1.5,1.403 2.403,0.5 3.5,0.5L16.783,0.5C17.05,0.5 17.305,0.607 17.493,0.796L22.158,5.506C22.343,5.692 22.447,5.944 22.448,6.207L22.496,27.496C22.496,27.497 22.496,27.499 22.496,27.5C22.496,28.597 21.593,29.5 20.496,29.5C20.496,29.5 3.5,29.5 3.5,29.5C2.403,29.5 1.5,28.597 1.5,27.5L1.5,2.5Z" style="fill:white;fill-rule:nonzero;stroke:rgb(187,187,187);stroke-width:1px;"/>
                    </g>
                    <g transform="matrix(4.166667,0,0,4.166667,0,0)">
                        <path d="M16.5,0.5L16.5,5C16.5,5.823 17.177,6.5 18,6.5L22.5,6.5" style="fill:none;fill-rule:nonzero;stroke:rgb(187,187,187);stroke-width:1px;"/>
                    </g>
                    <g transform="matrix(4.166667,0,0,4.166667,0,0)">
                        <path d="M14,20C14,20.552 13.552,21 13,21L6,21C5.448,21 5,20.552 5,20C5,19.448 5.448,19 6,19L13,19C13.552,19 14,19.448 14,20Z" style="fill:rgb(169,203,221);"/>
                    </g>
                    <g transform="matrix(4.166667,0,0,4.166667,0,0)">
                        <path d="M19,16C19,16.552 18.552,17 18,17L6,17C5.448,17 5,16.552 5,16C5,15.448 5.448,15 6,15L18,15C18.552,15 19,15.448 19,16Z" style="fill:rgb(169,203,221);"/>
                    </g>
                    <g transform="matrix(4.166667,0,0,4.166667,0,0)">
                        <path d="M19,12C19,12.552 18.552,13 18,13L6,13C5.448,13 5,12.552 5,12C5,11.448 5.448,11 6,11L18,11C18.552,11 19,11.448 19,12Z" style="fill:rgb(40,124,169);"/>
                    </g>
                </g>
            </g>
        </g>
        <g transform="matrix(1,0,0,1,1173.498075,1498.303646)">
            <g transform="matrix(1,0,0,1,-50,-62.5)">
                <clipPath id="_clip4">
                    <rect x="0" y="0" width="100" height="125"/>
                </clipPath>
                <g clip-path="url(#_clip4)">
                    <g transform="matrix(4.166667,0,0,4.166667,0,0)">
                        <path d="M1.5,2.5C1.5,1.403 2.403,0.5 3.5,0.5L16.783,0.5C17.05,0.5 17.305,0.607 17.493,0.796L22.158,5.506C22.343,5.692 22.447,5.944 22.448,6.207L22.496,27.496C22.496,27.497 22.496,27.499 22.496,27.5C22.496,28.597 21.593,29.5 20.496,29.5C20.496,29.5 3.5,29.5 3.5,29.5C2.403,29.5 1.5,28.597 1.5,27.5L1.5,2.5Z" style="fill:white;fill-rule:nonzero;stroke:rgb(187,187,187);stroke-width:1px;"/>
                    </g>
                    <g transform="matrix(4.166667,0,0,4.166667,0,0)">
                        <path d="M4.46,11.291C4.272,11.478 4.167,11.733 4.167,11.998C4.167,12.264 4.272,12.519 4.46,12.706L6.996,15.241L6.996,16.998L5.996,16.998C5.447,16.998 4.996,17.449 4.996,17.998L4.996,21.998C4.996,22.547 5.447,22.998 5.996,22.998L9.996,22.998C10.545,22.998 10.996,22.547 10.996,21.998L10.996,17.998C10.996,17.449 10.545,16.998 9.996,16.998L8.996,16.998L8.996,15.241L11.239,12.998L17.996,12.998C18.545,12.998 18.996,12.547 18.996,11.998C18.996,11.449 18.545,10.998 17.996,10.998L11.24,10.998L8.703,8.463C8.315,8.075 7.677,8.075 7.289,8.463L4.46,11.291ZM6.996,20.998L6.996,18.998L8.996,18.998L8.996,20.998L6.996,20.998ZM6.582,11.998L7.996,10.584L9.411,11.998L7.996,13.413L6.582,11.998Z" style="fill:rgb(189,185,228);fill-rule:nonzero;"/>
                    </g>
                    <g transform="matrix(4.166667,0,0,4.166667,0,0)">
                        <path d="M16.5,0.5L16.5,5C16.5,5.823 17.177,6.5 18,6.5L22.5,6.5" style="fill:none;fill-rule:nonzero;stroke:rgb(187,187,187);stroke-width:1px;"/>
                    </g>
                    <g transform="matrix(4.166667,0,0,4.166667,0,0)">
                        <path d="M21.35,17.43L18.96,24.57L17.03,24.57L14.65,17.43L16.48,17.43L17.64,21.39C17.674,21.49 17.714,21.643 17.76,21.85C17.807,22.05 17.853,22.26 17.9,22.48C17.953,22.693 17.987,22.87 18,23.01C18.02,22.87 18.05,22.693 18.09,22.48C18.137,22.267 18.183,22.06 18.23,21.86C18.277,21.653 18.317,21.5 18.35,21.4L19.53,17.43L21.35,17.43Z" style="fill:white;fill-rule:nonzero;"/>
                    </g>
                </g>
            </g>
        </g>
    </g>
</svg>
